<?xml version="1.0" encoding="UTF-8"?>
<svg xmlns="http://www.w3.org/2000/svg" xmlns:xlink="http://www.w3.org/1999/xlink" width="400pt" height="50.48pt" viewBox="0 0 400 50.48" version="1.1">
<defs>
<clipPath id="clip1">
  <path d="M 0 0 L 31 0 L 31 50.480469 L 0 50.480469 Z M 0 0 "/>
</clipPath>
<clipPath id="clip2">
  <path d="M 85 0 L 136 0 L 136 50.480469 L 85 50.480469 Z M 85 0 "/>
</clipPath>
<clipPath id="clip3">
  <path d="M 213 0 L 256 0 L 256 50.480469 L 213 50.480469 Z M 213 0 "/>
</clipPath>
<clipPath id="clip4">
  <path d="M 262 0 L 313 0 L 313 50.480469 L 262 50.480469 Z M 262 0 "/>
</clipPath>
<clipPath id="clip5">
  <path d="M 321 0 L 374 0 L 374 50.480469 L 321 50.480469 Z M 321 0 "/>
</clipPath>
</defs>
<g id="surface1">
<g clip-path="url(#clip1)" clip-rule="nonzero">
<path style=" stroke:none;fill-rule:nonzero;fill:rgb(43.099976%,43.099976%,43.899536%);fill-opacity:1;" d="M 24.351563 14.742188 C 23.441406 8.644531 20.417969 5.53125 15.28125 5.40625 C 13.625 5.40625 12.257813 5.648438 11.1875 6.128906 C 10.054688 6.589844 9.183594 7.230469 8.578125 8.046875 C 7.320313 9.765625 6.714844 11.523438 6.757813 13.328125 C 6.714844 16.847656 9.015625 19.445313 13.65625 21.121094 L 19.640625 23.417969 C 27.035156 26.390625 30.710938 30.855469 30.667969 36.804688 C 30.609375 40.808594 29.210938 44.058594 26.472656 46.550781 C 23.734375 49.128906 20.0625 50.4375 15.457031 50.480469 C 11.097656 50.480469 7.546875 49.277344 4.808594 46.867188 C 2.046875 44.5 0.445313 40.875 0 35.992188 L 5.964844 35.992188 C 6.167969 38.652344 7.042969 40.824219 8.589844 42.5 C 10.117188 44.21875 12.507813 45.078125 15.761719 45.078125 C 18.429688 45.035156 20.574219 44.261719 22.203125 42.75 C 23.828125 41.324219 24.664063 39.523438 24.707031 37.347656 C 24.664063 35.457031 23.992188 33.847656 22.695313 32.503906 C 21.378906 31.226563 19.59375 30.179688 17.339844 29.359375 L 11.316406 26.910156 C 4.292969 24.164063 0.785156 19.699219 0.785156 13.519531 C 0.828125 9.222656 2.292969 5.902344 5.191406 3.554688 C 7.964844 1.1875 11.347656 0.00390625 15.335938 0.00390625 C 19.304688 0.00390625 22.636719 1.207031 25.332031 3.617188 C 28.042969 6.046875 29.582031 9.757813 29.949219 14.742188 "/>
</g>
<path style=" stroke:none;fill-rule:nonzero;fill:rgb(43.099976%,43.099976%,43.899536%);fill-opacity:1;" d="M 70.367188 0.789063 L 76.332031 0.789063 L 76.332031 49.695313 L 70.367188 49.695313 L 70.367188 27.5625 L 45.59375 27.5625 L 45.59375 49.695313 L 39.625 49.695313 L 39.625 0.789063 L 45.59375 0.789063 L 45.59375 21.785156 L 70.367188 21.785156 "/>
<g clip-path="url(#clip2)" clip-rule="nonzero">
<path style=" stroke:none;fill-rule:nonzero;fill:rgb(43.099976%,43.099976%,43.899536%);fill-opacity:1;" d="M 92.015625 25.257813 C 92.097656 31.128906 94.035156 35.804688 97.835938 39.289063 C 101.492188 42.855469 105.816406 44.660156 110.8125 44.699219 C 115.828125 44.660156 120.179688 42.855469 123.855469 39.289063 C 127.589844 35.804688 129.5 31.128906 129.578125 25.257813 C 129.5 19.363281 127.589844 14.65625 123.855469 11.132813 C 120.179688 7.609375 115.828125 5.824219 110.8125 5.785156 C 105.816406 5.824219 101.492188 7.609375 97.835938 11.132813 C 94.035156 14.65625 92.097656 19.363281 92.015625 25.257813 M 85.671875 25.257813 C 85.671875 18.90625 87.875 13.171875 92.277344 8.054688 C 96.558594 2.855469 102.738281 0.171875 110.8125 0.00390625 C 118.910156 0.171875 125.121094 2.851563 129.441406 8.050781 C 133.722656 13.160156 135.882813 18.890625 135.925781 25.242188 C 135.882813 31.589844 133.722656 37.300781 129.441406 42.371094 C 125.121094 47.589844 118.910156 50.292969 110.8125 50.480469 C 102.738281 50.292969 96.558594 47.589844 92.277344 42.375 C 87.875 37.308594 85.671875 31.601563 85.671875 25.257813 "/>
</g>
<path style=" stroke:none;fill-rule:nonzero;fill:rgb(43.099976%,43.099976%,43.899536%);fill-opacity:1;" d="M 157.460938 27.632813 C 164.902344 27.632813 168.664063 24.070313 168.742188 16.945313 C 168.664063 9.820313 164.902344 6.234375 157.460938 6.191406 L 151.578125 6.191406 L 151.578125 27.632813 Z M 145.609375 0.789063 L 158.699219 0.789063 C 163.773438 0.871094 167.699219 2.515625 170.480469 5.722656 C 173.257813 8.90625 174.671875 12.648438 174.710938 16.945313 C 174.671875 21.132813 173.257813 24.820313 170.480469 28.003906 C 167.699219 31.273438 163.773438 32.949219 158.699219 33.03125 L 151.578125 33.03125 L 151.578125 49.695313 L 145.609375 49.695313 "/>
<g clip-path="url(#clip3)" clip-rule="nonzero">
<path style=" stroke:none;fill-rule:nonzero;fill:rgb(43.099976%,43.099976%,43.899536%);fill-opacity:1;" d="M 251.140625 10.816406 C 247.644531 7.503906 243.578125 5.824219 238.925781 5.78125 C 233.855469 5.824219 229.515625 7.628906 225.90625 11.195313 C 222.152344 14.761719 220.238281 19.445313 220.15625 25.257813 C 220.238281 31.003906 222.171875 35.640625 225.96875 39.164063 C 229.621094 42.8125 233.945313 44.660156 238.9375 44.699219 C 244.128906 44.660156 248.339844 42.917969 251.570313 39.476563 L 255.371094 43.929688 C 250.769531 48.152344 245.289063 50.335938 238.945313 50.480469 C 230.871094 50.292969 224.695313 47.589844 220.414063 42.371094 C 216.011719 37.300781 213.8125 31.589844 213.8125 25.242188 C 213.8125 18.890625 216.011719 13.160156 220.414063 8.050781 C 224.695313 2.851563 230.871094 0.171875 238.945313 0.00390625 C 245.617188 0.128906 251.03125 2.214844 255.1875 6.253906 "/>
</g>
<g clip-path="url(#clip4)" clip-rule="nonzero">
<path style=" stroke:none;fill-rule:nonzero;fill:rgb(43.099976%,43.099976%,43.899536%);fill-opacity:1;" d="M 268.824219 25.257813 C 268.90625 31.128906 270.847656 35.804688 274.644531 39.289063 C 278.300781 42.855469 282.628906 44.660156 287.625 44.699219 C 292.640625 44.660156 296.988281 42.855469 300.664063 39.289063 C 304.402344 35.804688 306.308594 31.128906 306.390625 25.257813 C 306.308594 19.363281 304.402344 14.65625 300.664063 11.132813 C 296.988281 7.609375 292.640625 5.824219 287.625 5.785156 C 282.628906 5.824219 278.300781 7.609375 274.644531 11.132813 C 270.847656 14.65625 268.90625 19.363281 268.824219 25.257813 M 262.480469 25.257813 C 262.480469 18.90625 264.683594 13.171875 269.089844 8.054688 C 273.367188 2.855469 279.546875 0.171875 287.625 0.00390625 C 295.722656 0.171875 301.929688 2.851563 306.253906 8.050781 C 310.53125 13.160156 312.691406 18.890625 312.734375 25.242188 C 312.691406 31.589844 310.53125 37.300781 306.253906 42.371094 C 301.929688 47.589844 295.722656 50.292969 287.625 50.480469 C 279.546875 50.292969 273.367188 47.589844 269.089844 42.375 C 264.683594 37.308594 262.480469 31.601563 262.480469 25.257813 "/>
</g>
<g clip-path="url(#clip5)" clip-rule="nonzero">
<path style=" stroke:none;fill-rule:nonzero;fill:rgb(43.099976%,43.099976%,43.899536%);fill-opacity:1;" d="M 367.421875 0.789063 L 373.390625 0.789063 L 373.390625 49.695313 L 367.421875 49.695313 L 367.421875 13.4375 L 367.300781 13.4375 L 347.65625 50.195313 L 328.015625 13.4375 L 327.894531 13.4375 L 327.894531 49.695313 L 321.925781 49.695313 L 321.925781 0.789063 L 327.894531 0.789063 L 347.65625 37.738281 "/>
</g>
<path style=" stroke:none;fill-rule:nonzero;fill:rgb(43.099976%,43.099976%,43.899536%);fill-opacity:1;" d="M 381.546875 12.164063 L 381.546875 2.785156 L 378.042969 2.785156 L 378.042969 1.53125 L 386.472656 1.53125 L 386.472656 2.785156 L 382.953125 2.785156 L 382.953125 12.164063 "/>
<path style=" stroke:none;fill-rule:nonzero;fill:rgb(43.099976%,43.099976%,43.899536%);fill-opacity:1;" d="M 388.863281 12.164063 L 388.863281 1.53125 L 390.980469 1.53125 L 393.992188 9.058594 C 394.222656 9.761719 394.394531 10.285156 394.5 10.632813 C 394.621094 10.246094 394.808594 9.679688 395.066406 8.929688 L 398.105469 1.53125 L 400 1.53125 L 400 12.164063 L 398.644531 12.164063 L 398.644531 3.265625 L 395.058594 12.164063 L 393.789063 12.164063 L 390.21875 3.109375 L 390.21875 12.164063 "/>
<path style=" stroke:none;fill-rule:nonzero;fill:rgb(19.198608%,48.999023%,59.199524%);fill-opacity:1;" d="M 203.914063 24.746094 C 203.914063 30.078125 199.59375 34.402344 194.261719 34.402344 C 188.929688 34.402344 184.605469 30.078125 184.605469 24.746094 C 184.605469 19.414063 188.929688 15.089844 194.261719 15.089844 C 199.59375 15.089844 203.914063 19.414063 203.914063 24.746094 "/>
</g>
</svg>
